<svg
  width="29"
  height="23"
  viewBox="0 0 29 23"
  fill="none"
  xmlns="http://www.w3.org/2000/svg"
>
<path
    id="Vector"
    fill-rule="evenodd"
    clip-rule="evenodd"
    d="M9.11464 18.0222C9.44973 18.8498 9.5525 18.9524 9.6041 18.9723C9.7556 19.1154 9.95647 19.1958 10.1657 19.1971H11.9898C11.5572 19.3618 11.1964 19.6715 10.9699 20.0723C10.7435 20.4732 10.6658 20.94 10.7503 21.3917C10.8348 21.8435 11.0761 22.2516 11.4324 22.5454C11.7887 22.8392 12.2374 23 12.7008 23C13.1642 23 13.613 22.8392 13.9693 22.5454C14.3256 22.2516 14.5669 21.8435 14.6514 21.3917C14.7359 20.94 14.6581 20.4732 14.4317 20.0723C14.2053 19.6715 13.8445 19.3618 13.4119 19.1971H21.2333C20.8018 19.3623 20.4422 19.6719 20.2168 20.0723C19.9914 20.4727 19.9144 20.9387 19.9992 21.3895C20.0839 21.8403 20.325 22.2475 20.6808 22.5405C21.0365 22.8336 21.4844 22.994 21.9469 22.994C22.4095 22.994 22.8574 22.8336 23.2131 22.5405C23.5689 22.2475 23.81 21.8403 23.8947 21.3895C23.9795 20.9387 23.9025 20.4727 23.6771 20.0723C23.4517 19.6719 23.0921 19.3623 22.6606 19.1971H25.242C25.4553 19.1971 25.6598 19.1131 25.8106 18.9636C25.9615 18.8141 26.0462 18.6113 26.0462 18.3998C26.0447 18.1893 25.9593 17.9879 25.8087 17.8396C25.658 17.6912 25.4543 17.608 25.242 17.608H10.7008L10.1959 15.8711L24.3292 15.8762C24.7724 15.8762 25.0813 15.8558 25.1638 15.8354C25.6946 15.7178 25.7719 15.1969 25.9213 14.7524L27.3227 10.5841C27.6267 9.65937 27.9513 8.74574 28.261 7.78472L28.9358 5.70565C29.0802 5.3123 29.0288 4.77542 28.2764 4.77542L6.40973 4.80178L4.95765 0.556813C4.90243 0.438209 4.82319 0.332135 4.72487 0.245185C4.64647 0.167228 4.55328 0.105427 4.45068 0.0633467C4.34808 0.0212659 4.23809 -0.000262613 4.12705 2.41754e-06H0.845114C0.621284 0.000992985 0.406906 0.0895868 0.248632 0.246505C0.0903585 0.403422 0.000999127 0.615964 0 0.837877C0.000177562 1.06002 0.0892803 1.27301 0.247738 1.43007C0.406196 1.58713 0.621051 1.67541 0.845114 1.67553H3.58107L9.11464 18.0222Z"
    fill="#5D15D2"
  />
</svg>
