<svg width="308" height="126" viewBox="0 0 308 126" fill="none" xmlns="http://www.w3.org/2000/svg">
<g clip-path="url(#clip0_74_740)">
<path d="M25.2789 46.8898L4.15296 55.1597L7.54206 32.7444L25.2789 46.8898Z" fill="#5D15D2"/>
<path d="M48.2937 61.3587L28.3334 72.1374L28.9646 49.4795L48.2937 61.3587Z" fill="#C686F3"/>
<path d="M72.9018 72.9184L54.4045 86.0461L52.2661 63.479L72.9018 72.9184Z" fill="#D7DE21"/>
<path d="M98.7324 81.3952L81.9766 96.6773L77.1025 74.5364L98.7324 81.3952Z" fill="#5D15D2"/>
<path d="M125.409 86.6642L110.64 103.873L103.101 82.491L125.409 86.6642Z" fill="#C686F3"/>
<path d="M152.525 88.6464L139.968 107.525L129.878 87.2202L152.525 88.6464Z" fill="#D7DE21"/>
<path d="M179.682 87.3124L169.522 107.58L157.028 88.6549L179.682 87.3124Z" fill="#5D15D2"/>
<path d="M206.47 82.6813L198.859 104.037L184.152 86.7726L206.47 82.6813Z" fill="#C686F3"/>
<path d="M232.496 74.8261L227.547 96.9486L210.844 81.6021L232.496 74.8261Z" fill="#D7DE21"/>
<path d="M257.368 63.8599L255.155 86.4193L236.703 73.2225L257.368 63.8599Z" fill="#5D15D2"/>
<path d="M280.715 49.9468L281.269 72.6087L261.347 61.7545L280.715 49.9468Z" fill="#C686F3"/>
<path d="M302.19 33.2936L305.507 55.7195L284.406 47.3721L302.19 33.2936Z" fill="#D7DE21"/>
</g>
<defs>
<clipPath id="clip0_74_740">
<rect width="299.475" height="92.146" fill="white" transform="translate(10.4478) rotate(6.51041)"/>
</clipPath>
</defs>
</svg>
