<svg width="24" height="34" viewBox="0 0 24 34" fill="none" xmlns="http://www.w3.org/2000/svg">
<g id="location" clip-path="url(#clip0_69_337)">
<path id="Vector" d="M11.805 0C5.28509 0 0 5.28247 0 11.7991C0 12.9189 0.159879 14.0012 0.451291 15.0269C0.630446 15.6593 0.827744 16.286 1.1373 16.8538C3.55816 21.284 11.805 33.9989 11.805 33.9989C11.805 33.9989 20.0529 21.2829 22.4738 16.8538C22.7834 16.286 22.9795 15.6593 23.1598 15.0269C23.4512 14.0001 23.6111 12.9189 23.6111 11.7991C23.6111 5.28247 18.3249 0 11.805 0ZM11.805 16.9955C10.1586 16.9955 8.68904 16.2259 7.73657 15.028C7.03015 14.1406 6.60721 13.0186 6.60721 11.8003C6.60721 8.9352 8.93963 6.60507 11.8061 6.60507C14.6726 6.60507 17.0039 8.93633 17.0039 11.8003C17.0039 13.0197 16.581 14.1417 15.8745 15.028C14.9209 16.2259 13.4525 16.9955 11.8061 16.9955H11.805Z" fill="#1F1F1F"/>
</g>
<defs>
<clipPath id="clip0_69_337">
<rect width="23.6111" height="34" fill="white"/>
</clipPath>
</defs>
</svg>
